<?xml version="1.0" encoding="utf-8"?>
<!-- Generator: Adobe Illustrator 20.1.0, SVG Export Plug-In . SVG Version: 6.00 Build 0)  -->
<svg version="1.1" id="Layer_1" xmlns="http://www.w3.org/2000/svg" xmlns:xlink="http://www.w3.org/1999/xlink" x="0px" y="0px"
	 viewBox="0 0 187.6 187.6" style="enable-background:new 0 0 187.6 187.6;" xml:space="preserve">
<style type="text/css">
	.st0{fill:#09A64A;}
</style>
<title>facebookLogo</title>
<g id="YMOh2t.tif">
	<path class="st0" d="M100.4,187.6H7.8c-3.7-1.2-6.6-4.1-7.8-7.8V7.8C1.2,4,4.2,1,8.1,0h171.4c4,1,7.1,4.1,8.1,8.1v171.7
		c-1.2,3.8-4.2,6.8-8.1,7.8h-50c0-0.6-0.1-1.1-0.1-1.6c0-23,0-46,0-69.1c0-2.1,0.1-2.2,2.2-2.2h19.9c2.1,0,2.2-0.1,2.4-2.1
		c1-8,2.1-16,3.1-24c0.2-1.2-0.2-1.7-1.4-1.6c-2,0-4,0-6,0h-18.5c-1,0-1.9,0-1.9-1.4c0-6.5-0.1-13.1,0.1-19.6
		c0.2-6.2,2.9-9.2,8.9-10.7c2-0.4,3.9-0.6,5.9-0.6c4.1,0,8.2,0,12.3,0c1.1,0,1.6-0.4,1.6-1.6c0-7.3,0-14.6,0-21.9
		c0.1-0.7-0.4-1.5-1.1-1.6c-0.1,0-0.3,0-0.4,0c-1,0-2.1-0.1-3.1-0.2c-8-0.6-15.9-1.3-23.9-0.2c-7.6,1.1-14.3,4-19.7,9.6
		c-6.3,6.6-9,14.8-9.4,23.7c-0.3,7.3-0.1,14.7-0.1,22c0,2.5-0.1,2.6-2.5,2.6H77.9c-1.8,0-2,0.1-2,2c0,7.9,0,15.9,0,23.8
		c0,1.9,0.1,2,2,2h20c2.6,0,2.6,0,2.6,2.6c0,22.8,0,45.5,0,68.3C100.5,186.3,100.4,187,100.4,187.6z"/>
</g>
</svg>
