<?xml version="1.0" encoding="utf-8"?>
<!-- Generator: Adobe Illustrator 20.1.0, SVG Export Plug-In . SVG Version: 6.00 Build 0)  -->
<svg version="1.1" id="Facebook" xmlns="http://www.w3.org/2000/svg" xmlns:xlink="http://www.w3.org/1999/xlink" x="0px" y="0px"
	 viewBox="0 0 577.4 94.3" style="enable-background:new 0 0 577.4 94.3;" xml:space="preserve">
<style type="text/css">
	.st0{fill:#3B5998;}
	.st1{fill:#FFFFFF;}
	.st2{font-family:'HelveticaNeue-Medium';}
	.st3{font-size:34px;}
	.st4{font-family:'HelveticaNeue-Light';}
</style>
<g id="Button">
	<path id="Button-2" class="st0" d="M8.7,0.2h560c5.5,0,10,3.4,10,7.6v79c0,4.2-4.5,7.6-10,7.6H8.7c-5.5,0-10-3.4-10-7.6v-79
		C-1.3,3.6,3.2,0.2,8.7,0.2z"/>
	<path id="Facebook_Logo" class="st1" d="M75.8,21.5H27.9c-1.6,0-2.9,1.3-2.9,2.9l0,0v47.7c0,1.6,1.3,2.9,2.9,2.9l0,0h25.8V54.4h-7
		v-8.1h7v-6c0-7,4.2-10.7,10.4-10.7c2.1,0,4.2,0.1,6.3,0.3v7.2h-4.3c-3.4,0-4,1.6-4,3.9v5.2h8l-1,8.1h-7v20.8h13.7
		c1.6,0,2.9-1.3,2.9-2.9l0,0V24.4C78.7,22.8,77.4,21.5,75.8,21.5L75.8,21.5z"/>
	<text transform="matrix(1 0 0 1 176.5305 60.138)" class="st1 st2 st3">Login </text>
	<text transform="matrix(1 0 0 1 277.5305 60.138)" class="st1 st4 st3">with</text>
	<text transform="matrix(1 0 0 1 347.3352 60.138)" class="st1 st2 st3"> Facebook</text>
</g>
</svg>
