<?xml version="1.0" encoding="utf-8"?>
<!-- Generator: Adobe Illustrator 20.1.0, SVG Export Plug-In . SVG Version: 6.00 Build 0)  -->
<svg version="1.1" id="Layer_1" xmlns="http://www.w3.org/2000/svg" xmlns:xlink="http://www.w3.org/1999/xlink" x="0px" y="0px"
	 viewBox="0 0 360 360" style="enable-background:new 0 0 360 360;" xml:space="preserve">
<style type="text/css">
	.st0{fill:#FFFFFF;stroke:#FFFFFF;stroke-miterlimit:10;}
	.st1{fill:none;stroke:#FFFFFF;stroke-width:22;stroke-miterlimit:10;}
</style>
<g>
	<path class="st0" d="M43.2,39.7h-0.5L19.7,52.1l-3.4-13.6l28.9-15.6h15.3v132.9H43.2V39.7z"/>
	<path class="st0" d="M4.1,336.7v-10.9l14.1-13.6c34-32.3,49.3-49.6,49.6-69.5c0-13.6-6.6-26-26.5-26c-12.2,0-22.1,6.1-28.2,11.2
		l-5.8-12.6c9.2-7.8,22.4-13.6,37.7-13.6c28.7,0,40.6,19.7,40.6,38.6c0,24.5-17.7,44.5-45.7,71.4l-10.7,9.7v0.5h59.8v14.8L4.1,336.7
		L4.1,336.7z"/>
</g>
<line class="st1" x1="126.8" y1="53.2" x2="355" y2="53.2"/>
<line class="st1" x1="126.8" y1="113.5" x2="355" y2="113.5"/>
<line class="st1" x1="126.8" y1="250.8" x2="355" y2="250.8"/>
<line class="st1" x1="126.8" y1="310.8" x2="355" y2="310.8"/>
</svg>
