<?xml version="1.0" encoding="utf-8"?>
<!-- Generator: Adobe Illustrator 20.1.0, SVG Export Plug-In . SVG Version: 6.00 Build 0)  -->
<svg version="1.1" id="Twitter" xmlns="http://www.w3.org/2000/svg" xmlns:xlink="http://www.w3.org/1999/xlink" x="0px" y="0px"
	 viewBox="0 0 580.3 94.3" style="enable-background:new 0 0 580.3 94.3;" xml:space="preserve">
<style type="text/css">
	.st0{fill:#55ACEE;}
	.st1{fill:#FFFFFF;}
	.st2{font-family:'HelveticaNeue-Medium';}
	.st3{font-size:34px;}
	.st4{font-family:'HelveticaNeue-Light';}
</style>
<g id="Button">
	<path id="Button-2" class="st0" d="M10.2,0h560c5.5,0,10,3.4,10,7.6v79.1c0,4.2-4.5,7.6-10,7.6h-560c-5.5,0-10-3.4-10-7.6V7.6
		C0.2,3.4,4.6,0,10.2,0z"/>
	<path id="Twitter-2" class="st1" d="M44.1,66.3c14.7,0,29.4-10.8,29.4-30.8c2-1.4,3.8-3.2,5.2-5.4c-1.9,0.9-3.9,1.4-5.9,1.7
		c2.1-1.3,3.7-3.3,4.6-5.8c-2,1.2-4.3,2-6.6,2.5C66.8,24.3,60.2,24.1,56,28c-2.7,2.5-3.9,6.3-3,9.9c-8.4-0.4-16.1-4.3-21.4-10.8
		C28.9,31.9,30.3,38,34.9,41c-1.7,0-3.2-0.5-4.7-1.3c0,2.6,1.2,8.7,8.3,10.2c-1.5,0.5-3.2,0.5-4.7,0.2c1.3,4.2,5.2,7.1,9.7,7.2
		c-4.3,3.4-9.9,5-15.3,4.3C33,64.7,38.5,66.3,44.1,66.3z"/>
	<text transform="matrix(1 0 0 1 197.8104 59.138)" class="st1 st2 st3">Login </text>
	<text transform="matrix(1 0 0 1 299.8104 59.138)" class="st1 st4 st3">with</text>
	<text transform="matrix(1 0 0 1 369.6151 59.138)" class="st1 st2 st3"> Twitter</text>
</g>
</svg>
