<svg id="Layer_1" data-name="Layer 1" xmlns="http://www.w3.org/2000/svg" viewBox="0 0 64 52"><defs><style>.cls-1{fill:#09a64a;}</style></defs><title>twitterLogo</title><path id="Twitter-2" class="cls-1" d="M20.56,53c18.71,0,37.28-13.69,37.28-39.07A26.21,26.21,0,0,0,64.4,7.14a26.46,26.46,0,0,1-7.52,2.08A13.6,13.6,0,0,0,62.64,2a26.68,26.68,0,0,1-8.35,3.2,13.13,13.13,0,0,0-22.37,12A37.22,37.22,0,0,1,4.85,3.4,13.14,13.14,0,0,0,8.91,20.94,12.57,12.57,0,0,1,3,19.3c0,3.26,1.5,11,10.5,13a12.72,12.72,0,0,1-5.92.26,13.21,13.21,0,0,0,12.26,9.12A26.14,26.14,0,0,1,.4,47.08,36.61,36.61,0,0,0,20.56,53Z" transform="translate(-0.4 -1)"/></svg>