<?xml version="1.0" encoding="utf-8"?>
<!-- Generator: Adobe Illustrator 20.1.0, SVG Export Plug-In . SVG Version: 6.00 Build 0)  -->
<svg version="1.1" id="Layer_1" xmlns="http://www.w3.org/2000/svg" xmlns:xlink="http://www.w3.org/1999/xlink" x="0px" y="0px"
	 viewBox="0 0 64 52" style="enable-background:new 0 0 64 52;" xml:space="preserve">
<style type="text/css">
	.st0{fill:#4E4E4E;}
</style>
<title>twitterLogo</title>
<path id="Twitter-2" class="st0" d="M20.2,52c18.7,0,37.3-13.7,37.3-39.1c2.6-1.8,4.8-4.1,6.6-6.8c-2.4,1.1-4.9,1.8-7.5,2.1
	C59.2,6.6,61.2,4,62.2,1c-2.6,1.5-5.4,2.6-8.3,3.2c-4.9-5.3-13.3-5.6-18.6-0.6c-3.4,3.2-4.9,8-3.8,12.6C20.9,15.7,11.1,10.6,4.4,2.4
	C1,8.4,2.7,16.1,8.5,19.9c-2.1-0.1-4.1-0.6-5.9-1.6c0,3.3,1.5,11,10.5,13c-1.9,0.6-4,0.6-5.9,0.3c1.7,5.3,6.7,9,12.3,9.1
	C13.9,45,6.9,47,0,46.1C6,50,13,52,20.2,52z"/>
</svg>
