<?xml version="1.0" encoding="utf-8"?>
<!-- Generator: Adobe Illustrator 20.1.0, SVG Export Plug-In . SVG Version: 6.00 Build 0)  -->
<svg version="1.1" id="Layer_1" xmlns="http://www.w3.org/2000/svg" xmlns:xlink="http://www.w3.org/1999/xlink" x="0px" y="0px"
	 viewBox="0 0 432 432" style="enable-background:new 0 0 432 432;" xml:space="preserve">
<style type="text/css">
	.st0{fill:none;stroke:#FFFFFF;stroke-width:30;stroke-miterlimit:10;}
	.st1{fill:#FFFFFF;stroke:#FFFFFF;stroke-miterlimit:10;}
</style>
<title>ulButton</title>
<g id="u7Ss7V.tif">
	<path class="st0" d="M25.1,214.9c0.4-4.8,1.6-9.5,3.5-13.9c7.4-15.2,19.2-24.3,36.3-25.5c18.9-1.2,33.2,6.8,41.7,23.5
		c10.6,21.2,2.1,47.1-19.2,57.7c-21.2,10.6-47.1,2.1-57.7-19.2c-2.1-4.1-3.4-8.5-4.1-13c0-0.9-0.1-1.8-0.4-2.7L25.1,214.9z"/>
	<path class="st0" d="M72.5,30.4c2.2,0.4,4.5,0.7,6.7,1.3c23,6.1,36.6,29.7,30.5,52.7c-4.1,15.2-16.1,27-31.5,30.8
		c-27.8,6.2-49.6-13.1-52.7-35.5c0-1-0.1-2.1-0.4-3.1v-6.7c0.1-0.3,0.2-0.6,0.2-0.9c2.1-17.8,11.9-29.6,28.3-36.3
		c3.3-1.1,6.7-1.9,10.2-2.3H72.5z"/>
	<path class="st0" d="M25.1,357.6c0.3-4.2,1.3-8.4,2.8-12.3c6.5-15,17.5-24.5,33.9-26.9c19.9-3.2,39.3,8.1,46.4,27
		c9.8,26.7-6.5,52.2-31,57.6C53.9,408,31,393.3,26,370.1c0,0,0-0.1,0-0.1c-0.4-1.9-0.6-3.8-0.9-5.8L25.1,357.6z"/>
	<path class="st1" d="M291.6,92.8h-130c-6,0-8.9-2.5-8.9-8.1c0-11.7,0-23.5,0-35.2c0-0.9,0.1-1.9,0.3-2.8c0.5-2.7,2.8-4.7,5.6-5.2
		c1.4-0.2,2.9-0.3,4.4-0.3h257.4c1.3,0,2.7,0.1,4,0.2c3.4,0.4,6,3,6,6.2c0,12.9,0,25.8,0,38.7c0,3.5-3,6.4-6.8,6.5
		c-0.8,0-1.5,0-2.3,0L291.6,92.8z"/>
	<path class="st1" d="M291.6,241.8h-130c-6,0-8.9-2.5-8.9-8.1c0-11.7,0-23.5,0-35.2c0-0.9,0.1-1.9,0.3-2.8c0.5-2.7,2.8-4.7,5.6-5.2
		c1.4-0.2,2.9-0.3,4.4-0.3h257.4c1.3,0,2.7,0.1,4,0.2c3.4,0.4,6,3,6,6.2c0,12.9,0,25.8,0,38.7c0,3.5-3,6.4-6.8,6.5
		c-0.8,0-1.5,0-2.3,0L291.6,241.8z"/>
	<path class="st1" d="M291.6,390.8h-130c-6,0-8.9-2.5-8.9-8.1c0-11.7,0-23.5,0-35.2c0-0.9,0.1-1.9,0.3-2.8c0.5-2.7,2.8-4.7,5.6-5.2
		c1.4-0.2,2.9-0.3,4.4-0.3h257.4c1.3,0,2.7,0.1,4,0.2c3.4,0.4,6,3,6,6.2c0,12.9,0,25.8,0,38.7c0,3.5-3,6.4-6.8,6.5
		c-0.8,0-1.5,0-2.3,0L291.6,390.8z"/>
</g>
</svg>
